# xmcd CD database file
#
# Track frame offsets:
#	150
#	17632
#	30472
#	47755
#	62892
#	79029
#	91862
#	105987
#	118462
#	130372
#
# Disc length: 1854 seconds
#
# Revision: 0
# Processed by: cddbd v1.4PL0 Copyright (c) Steve Scherf et al.
# Submitted via: Feurio! 1.63 - http://www.feurio.com
#
DISCID=7c073c0a
DTITLE=Amy-Jayne McCabe - It's All About The Ride
DYEAR=1900
DGENRE=
TTITLE0=The Ride
TTITLE1=Who What Where When Why How?
TTITLE2=Crayon I Love Yous
TTITLE3=Just My Luck
TTITLE4=Think Of Me
TTITLE5=Nature Of A Woman
TTITLE6=So Long Heart
TTITLE7=That's Where It Hurts
TTITLE8=One Makes Three
TTITLE9=No Way Out
EXTD=
EXTT0=
EXTT1=
EXTT2=
EXTT3=
EXTT4=
EXTT5=
EXTT6=
EXTT7=
EXTT8=
EXTT9=
PLAYORDER=
